<svg width="15" height="15" viewBox="0 0 15 15" fill="none" xmlns="http://www.w3.org/2000/svg">
<path d="M7.04297 0.840234C6.15469 0.907031 5.40352 1.16719 4.80938 1.61133C3.96797 2.24297 3.45938 3.18984 3.28242 4.45547C3.26836 4.55156 3.25781 4.63359 3.25781 4.63945C3.25781 4.64531 3.30586 4.68047 3.36445 4.7168L3.47227 4.78242L4.28203 4.87969C4.72734 4.93359 5.09531 4.97344 5.1 4.96992C5.10469 4.96523 5.12227 4.88906 5.13867 4.79883C5.32617 3.77109 5.7375 3.10898 6.39961 2.76562C6.73008 2.59453 7.01602 2.52305 7.41914 2.51133C7.75664 2.50078 7.99805 2.53359 8.28516 2.62852C8.94141 2.84414 9.51445 3.4125 9.71836 4.04883C9.79102 4.275 9.80274 4.35703 9.80274 4.65234C9.80274 4.94648 9.79219 5.02031 9.71836 5.23125C9.57891 5.63203 9.28711 5.98359 8.54883 6.63984C7.70391 7.39102 7.38164 7.74375 7.10156 8.23125C6.74531 8.85 6.58945 9.59766 6.61641 10.5504L6.62461 10.8398L7.42266 10.8375L8.2207 10.834L8.22891 10.5937C8.25469 9.79922 8.32852 9.39141 8.51484 9.01992C8.59219 8.86641 8.63789 8.79141 8.73984 8.66016C8.85469 8.51133 9.3 8.07187 9.69727 7.71562C11.0309 6.52031 11.482 5.84883 11.6332 4.83281C11.6648 4.61602 11.6613 4.11797 11.6262 3.89062C11.5652 3.49687 11.475 3.20977 11.3039 2.87461C11.0883 2.44922 10.7367 2.02734 10.3254 1.70039C9.71133 1.21172 8.95313 0.93164 8.01914 0.849609C7.84102 0.834375 7.20703 0.827343 7.04297 0.840234Z" fill="black"/>
<path d="M6.56836 11.8852C6.52734 12.0621 6.52734 12.0691 6.52734 13.0383V13.9922H7.46484H8.40234L8.40117 13.016C8.4 12.1547 8.39766 12.0305 8.38125 11.9531L8.36133 11.8652L7.46836 11.8617L6.57422 11.8594L6.56836 11.8852Z" fill="black"/>
</svg>
